<svg width="64" height="64" viewBox="0 0 64 64" fill="none" xmlns="http://www.w3.org/2000/svg">
  <path
    d="M32 3C48.0225 3 61 15.8469 61 31.7082C60.9984 37.7233 59.0914 43.5865 55.5474 48.4725C52.0034 53.3585 47.0008 57.0212 41.2437 58.9452C39.7937 59.2322 39.25 58.3351 39.25 57.5815C39.25 56.6126 39.2862 53.5265 39.2862 49.6868C39.2862 46.9954 38.38 45.2729 37.3287 44.3757C43.7812 43.658 50.56 41.2178 50.56 30.201C50.56 27.0431 49.4362 24.4953 47.5875 22.4857C47.8775 21.768 48.8925 18.8254 47.2975 14.878C47.2975 14.878 44.8687 14.0886 39.3225 17.8206C37.0025 17.1747 34.5375 16.8517 32.0725 16.8517C29.6075 16.8517 27.1425 17.1747 24.8225 17.8206C19.2763 14.1244 16.8475 14.878 16.8475 14.878C15.2525 18.8254 16.2675 21.768 16.5575 22.4857C14.7088 24.4953 13.585 27.079 13.585 30.201C13.585 41.1819 20.3275 43.658 26.78 44.3757C25.9463 45.0934 25.185 46.3494 24.9313 48.2155C23.2638 48.9691 19.095 50.1891 16.485 45.847C15.9413 44.9858 14.31 42.8686 12.0263 42.9044C9.5975 42.9403 11.0475 44.2681 12.0625 44.8064C13.295 45.4882 14.7088 48.036 15.035 48.8614C15.615 50.4762 17.5 53.5624 24.7863 52.2346C24.7863 54.6389 24.8225 56.8997 24.8225 57.5815C24.8225 58.3351 24.2787 59.1964 22.8288 58.9452C17.0528 57.0419 12.0289 53.3866 8.46973 48.4977C4.91054 43.6087 2.99681 37.7345 3 31.7082C3 15.8469 15.9775 3 32 3Z"
    fill="white" />
</svg>