<svg width="64" height="64" viewBox="0 0 64 64" fill="none" xmlns="http://www.w3.org/2000/svg">
  <path
    d="M32 4C24.4015 4 23.446 4.035 20.4605 4.168C17.475 4.308 15.4415 4.777 13.66 5.47C11.7913 6.17287 10.0987 7.27539 8.7005 8.7005C7.27627 10.0994 6.17388 11.7918 5.47 13.66C4.777 15.438 4.3045 17.475 4.168 20.45C4.035 23.4425 4 24.3945 4 32.0035C4 39.6055 4.035 40.5575 4.168 43.543C4.308 46.525 4.777 48.5585 5.47 50.34C6.1875 52.181 7.143 53.742 8.7005 55.2995C10.2545 56.857 11.8155 57.816 13.6565 58.53C15.4415 59.223 17.4715 59.6955 20.4535 59.832C23.4425 59.965 24.3945 60 32 60C39.6055 60 40.554 59.965 43.543 59.832C46.5215 59.692 48.562 59.223 50.3435 58.53C52.211 57.8268 53.9024 56.7243 55.2995 55.2995C56.857 53.742 57.8125 52.181 58.53 50.34C59.2195 48.5585 59.692 46.525 59.832 43.543C59.965 40.5575 60 39.6055 60 32C60 24.3945 59.965 23.4425 59.832 20.4535C59.692 17.475 59.2195 15.438 58.53 13.66C57.8262 11.7918 56.7238 10.0994 55.2995 8.7005C53.9017 7.27486 52.209 6.17226 50.34 5.47C48.555 4.777 46.518 4.3045 43.5395 4.168C40.5505 4.035 39.602 4 31.993 4H32.0035H32ZM29.4905 9.047H32.0035C39.4795 9.047 40.365 9.0715 43.3155 9.208C46.0455 9.3305 47.5295 9.789 48.5165 10.1705C49.822 10.678 50.7565 11.287 51.7365 12.267C52.7165 13.247 53.322 14.178 53.8295 15.487C54.2145 16.4705 54.6695 17.9545 54.792 20.6845C54.9285 23.635 54.9565 24.5205 54.9565 31.993C54.9565 39.4655 54.9285 40.3545 54.792 43.305C54.6695 46.035 54.211 47.5155 53.8295 48.5025C53.3806 49.7183 52.6641 50.8175 51.733 51.719C50.753 52.699 49.822 53.3045 48.513 53.812C47.533 54.197 46.049 54.652 43.3155 54.778C40.365 54.911 39.4795 54.9425 32.0035 54.9425C24.5275 54.9425 23.6385 54.911 20.688 54.778C17.958 54.652 16.4775 54.197 15.4905 53.812C14.2742 53.3637 13.1739 52.6485 12.2705 51.719C11.3386 50.8161 10.621 49.7158 10.1705 48.499C9.789 47.5155 9.3305 46.0315 9.208 43.3015C9.075 40.351 9.047 39.4655 9.047 31.986C9.047 24.51 9.075 23.628 9.208 20.6775C9.334 17.9475 9.789 16.4635 10.174 15.4765C10.6815 14.171 11.2905 13.2365 12.2705 12.2565C13.2505 11.2765 14.1815 10.671 15.4905 10.1635C16.4775 9.7785 17.958 9.3235 20.688 9.1975C23.271 9.0785 24.272 9.0435 29.4905 9.04V9.047ZM46.9485 13.695C46.5073 13.695 46.0703 13.7819 45.6627 13.9508C45.255 14.1196 44.8846 14.3671 44.5726 14.6791C44.2606 14.9911 44.0131 15.3615 43.8443 15.7692C43.6754 16.1768 43.5885 16.6138 43.5885 17.055C43.5885 17.4962 43.6754 17.9332 43.8443 18.3408C44.0131 18.7485 44.2606 19.1189 44.5726 19.4309C44.8846 19.7429 45.255 19.9904 45.6627 20.1592C46.0703 20.3281 46.5073 20.415 46.9485 20.415C47.8396 20.415 48.6943 20.061 49.3244 19.4309C49.9545 18.8008 50.3085 17.9461 50.3085 17.055C50.3085 16.1639 49.9545 15.3092 49.3244 14.6791C48.6943 14.049 47.8396 13.695 46.9485 13.695ZM32.0035 17.622C30.0962 17.5922 28.2021 17.9422 26.4314 18.6515C24.6607 19.3608 23.0488 20.4152 21.6895 21.7535C20.3303 23.0917 19.2508 24.687 18.5139 26.4464C17.7771 28.2058 17.3977 30.0943 17.3977 32.0017C17.3977 33.9092 17.7771 35.7977 18.5139 37.5571C19.2508 39.3165 20.3303 40.9118 21.6895 42.25C23.0488 43.5883 24.6607 44.6427 26.4314 45.352C28.2021 46.0613 30.0962 46.4113 32.0035 46.3815C35.7784 46.3226 39.3787 44.7817 42.0274 42.0914C44.6761 39.4011 46.1607 35.7771 46.1607 32.0017C46.1607 28.2264 44.6761 24.6024 42.0274 21.9121C39.3787 19.2218 35.7784 17.6809 32.0035 17.622ZM32.0035 22.6655C34.4792 22.6655 36.8534 23.649 38.604 25.3995C40.3545 27.1501 41.338 29.5243 41.338 32C41.338 34.4757 40.3545 36.8499 38.604 38.6005C36.8534 40.351 34.4792 41.3345 32.0035 41.3345C29.5278 41.3345 27.1536 40.351 25.403 38.6005C23.6525 36.8499 22.669 34.4757 22.669 32C22.669 29.5243 23.6525 27.1501 25.403 25.3995C27.1536 23.649 29.5278 22.6655 32.0035 22.6655Z"
    fill="white" />
</svg>