<svg width="64" height="64" viewBox="0 0 64 64" fill="none" xmlns="http://www.w3.org/2000/svg">
  <path
    d="M4 8.011C4 5.7955 5.841 4 8.1125 4H55.8875C58.159 4 60 5.7955 60 8.011V55.989C60 58.2045 58.159 60 55.8875 60H8.1125C5.841 60 4 58.2045 4 55.989V8.011ZM21.3005 50.879V25.5915H12.897V50.879H21.3005ZM17.1005 22.137C20.03 22.137 21.8535 20.198 21.8535 17.769C21.801 15.2875 20.0335 13.401 17.1565 13.401C14.2795 13.401 12.4 15.291 12.4 17.769C12.4 20.198 14.2235 22.137 17.0445 22.137H17.1005ZM34.2785 50.879V36.7565C34.2785 36.0005 34.3345 35.2445 34.5585 34.7055C35.164 33.197 36.5465 31.6325 38.8705 31.6325C41.912 31.6325 43.1265 33.9495 43.1265 37.3515V50.879H51.53V36.375C51.53 28.605 47.386 24.993 41.856 24.993C37.397 24.993 35.3985 27.443 34.2785 29.1685V29.256H34.2225C34.2411 29.2268 34.2598 29.1976 34.2785 29.1685V25.5915H25.8785C25.9835 27.9645 25.8785 50.879 25.8785 50.879H34.2785Z"
    fill="white" />
</svg>